<svg id="Capa_1" enable-background="new 0 0 512 512" height="512" viewBox="0 0 512 512" width="512" xmlns="http://www.w3.org/2000/svg"><g><path d="m481.5 358.366-158.52 27.09c1.3 5.11 1.79 10.52 1.38 16.08-2.624 36.259-40.601 55.686-71.06 40.77l-54.16-26.65c-7.43-3.66-10.49-12.65-6.84-20.08 3.689-7.47 12.709-10.468 20.08-6.84l54.14 26.64c11.647 5.722 26.858-1.33 27.92-16.01.22-3.02.1-13.3-10.58-18.72-.02-.01-.05-.02-.07-.03-102.979-51.68-87.499-43.913-102.45-51.41-31.66-15.89-67.61-18.5-101.23-7.34-1.53.5-3.12.76-4.73.76h-75.01c-.2 0-.37.17-.37.37v128.12c0 .2.17.37.37.37h94.4c2.3 0 4.58.53 6.65 1.55l37.97 18.78c53.13 22.63 112.56 25.11 167.4 6.99l188.23-70.25c10.16-3.79 16.98-13.62 16.98-24.46 0-16.185-14.573-28.458-30.5-25.73z"/><path d="m445.576 21.201h-86.142c-4.364 0-8.253 2.822-9.532 6.994-7.291 23.795-26.103 42.607-49.898 49.898-4.173 1.279-6.994 5.167-6.994 9.532v140.946c0 16.56 9.74 31.67 24.82 38.52l67.2 30.5c11.11 5.04 23.84 5.04 34.94 0l67.22-30.51c15.108-6.857 24.81-21.916 24.81-38.507v-140.949c0-4.364-2.822-8.253-6.994-9.532-23.795-7.291-42.607-26.103-49.898-49.898-1.279-4.172-5.168-6.994-9.532-6.994zm5.834 155.18h-33.91v33.67c0 8.28-6.71 15-15 15-8.28 0-15-6.72-15-15v-33.67h-33.9c-8.28 0-15-6.72-15-15 0-8.29 6.72-15 15-15h33.9v-33.86c0-8.28 6.72-15 15-15 8.29 0 15 6.72 15 15v33.86h33.91c8.28 0 15 6.71 15 15 0 8.28-6.72 15-15 15z"/></g></svg>