<svg xmlns="http://www.w3.org/2000/svg" height="620pt" version="1.1" viewBox="0 -10 620 620" width="620pt">
<g id="surface1">
<path d="M 200 80 L 420 80 L 420 100 L 200 100 Z M 200 80 " style=" stroke:none;fill-rule:nonzero;fill:rgb(0%,0%,0%);fill-opacity:1;" />
<path d="M 230 50 L 390 50 L 390 70 L 230 70 Z M 230 50 " style=" stroke:none;fill-rule:nonzero;fill:rgb(0%,0%,0%);fill-opacity:1;" />
<path d="M 200 500 L 420 500 L 420 520 L 200 520 Z M 200 500 " style=" stroke:none;fill-rule:nonzero;fill:rgb(0%,0%,0%);fill-opacity:1;" />
<path d="M 230 530 L 390 530 L 390 550 L 230 550 Z M 230 530 " style=" stroke:none;fill-rule:nonzero;fill:rgb(0%,0%,0%);fill-opacity:1;" />
<path d="M 619.828125 169.160156 C 619.765625 168.480469 619.632812 167.8125 619.429688 167.15625 C 619.265625 166.558594 619.042969 165.972656 618.757812 165.410156 C 618.472656 164.875 618.140625 164.359375 617.757812 163.882812 C 617.34375 163.335938 616.867188 162.84375 616.335938 162.402344 C 616.117188 162.210938 616 161.949219 615.761719 161.792969 L 520 94.789062 L 520 10 C 520 4.476562 515.523438 0 510 0 L 110 0 C 104.476562 0 100 4.476562 100 10 L 100 94.789062 L 4.265625 161.792969 C 4.027344 161.949219 3.910156 162.210938 3.691406 162.402344 C 3.164062 162.84375 2.691406 163.335938 2.269531 163.882812 C 1.890625 164.359375 1.558594 164.875 1.269531 165.410156 C 0.992188 165.972656 0.765625 166.558594 0.601562 167.15625 C 0.394531 167.8125 0.265625 168.480469 0.199219 169.160156 C 0.117188 169.4375 0.046875 169.71875 0 170 L 0 430 C 0 435.523438 4.476562 440 10 440 L 100 440 L 100 590 C 100 595.523438 104.476562 600 110 600 L 510 600 C 515.523438 600 520 595.523438 520 590 L 520 440 L 610 440 C 615.523438 440 620 435.523438 620 430 L 620 170 C 619.960938 169.71875 619.902344 169.4375 619.828125 169.160156 Z M 578.28125 160 L 520 160 L 520 119.210938 Z M 500 20 L 500 160 L 470 160 L 470 120 C 470 114.476562 465.523438 110 460 110 L 160 110 C 154.476562 110 150 114.476562 150 120 L 150 160 L 120 160 L 120 20 Z M 170 160 L 170 130 L 450 130 L 450 160 Z M 100 160 L 41.71875 160 L 100 119.210938 Z M 500 580 L 120 580 L 120 440 L 150 440 L 150 480 C 150 485.523438 154.476562 490 160 490 L 460 490 C 465.523438 490 470 485.523438 470 480 L 470 440 L 500 440 Z M 450 440 L 450 470 L 170 470 L 170 440 Z M 600 420 L 20 420 L 20 180 L 600 180 Z M 600 420 " style=" stroke:none;fill-rule:nonzero;fill:rgb(0%,0%,0%);fill-opacity:1;" />
<path d="M 240 230 C 245.523438 230 250 225.523438 250 220 C 250 214.476562 245.523438 210 240 210 L 160 210 C 154.476562 210 150 214.476562 150 220 C 150 225.523438 154.476562 230 160 230 L 190 230 L 190 370 L 160 370 C 154.476562 370 150 374.476562 150 380 C 150 385.523438 154.476562 390 160 390 L 240 390 C 245.523438 390 250 385.523438 250 380 C 250 374.476562 245.523438 370 240 370 L 210 370 L 210 230 Z M 240 230 " style=" stroke:none;fill-rule:nonzero;fill:rgb(0%,0%,0%);fill-opacity:1;" />
<path d="M 310 230 L 350 230 C 355.523438 230 360 225.523438 360 220 C 360 214.476562 355.523438 210 350 210 L 310 210 C 282.398438 210.035156 260.035156 232.398438 260 260 L 260 340 C 260.035156 367.601562 282.398438 389.964844 310 390 L 350 390 C 355.523438 390 360 385.523438 360 380 C 360 374.476562 355.523438 370 350 370 L 310 370 C 293.433594 370 280 356.566406 280 340 L 280 260 C 280 243.433594 293.433594 230 310 230 Z M 310 230 " style=" stroke:none;fill-rule:nonzero;fill:rgb(0%,0%,0%);fill-opacity:1;" />
<path d="M 410 210 L 380 210 C 374.476562 210 370 214.476562 370 220 L 370 380 C 370 385.523438 374.476562 390 380 390 L 420 390 C 447.601562 389.964844 469.964844 367.601562 470 340 L 470 260 C 470 231.851562 437.738281 210 410 210 Z M 450 340 C 450 356.566406 436.566406 370 420 370 L 390 370 L 390 230 L 410 230 C 427.46875 230 450 244.550781 450 260 Z M 450 340 " style=" stroke:none;fill-rule:nonzero;fill:rgb(0%,0%,0%);fill-opacity:1;" />
</g>
</svg>