<?xml version="1.0"?>
<svg xmlns="http://www.w3.org/2000/svg" xmlns:xlink="http://www.w3.org/1999/xlink" xmlns:svgjs="http://svgjs.com/svgjs" version="1.1" width="512" height="512" x="0" y="0" viewBox="0 0 512 512" style="enable-background:new 0 0 512 512" xml:space="preserve" class=""><g><g xmlns="http://www.w3.org/2000/svg"><path d="m315.234 354.021h-27.277v-27.277c0-5.523-4.478-10-10-10h-43.914c-5.522 0-10 4.477-10 10v27.277h-27.277c-5.522 0-10 4.477-10 10v43.915c0 5.523 4.478 10 10 10h27.277v27.277c0 5.523 4.478 10 10 10h43.914c5.522 0 10-4.477 10-10v-27.277h27.277c5.522 0 10-4.477 10-10v-43.915c0-5.522-4.477-10-10-10zm-10 43.915h-27.277c-5.522 0-10 4.477-10 10v27.277h-23.914v-27.277c0-5.523-4.478-10-10-10h-27.277v-23.915h27.277c5.522 0 10-4.477 10-10v-27.277h23.914v27.277c0 5.523 4.478 10 10 10h27.277z" fill="#f5f5f5" data-original="#000000" style=""/><path d="m430.516 253.638h-8.218s0-183.224 0-183.229l-.002-.445c-.012-2.524-1.095-4.911-2.924-6.65-.001-.001-.002-.002-.003-.002l-60.383-60.383c-2.691-2.692-7.107-2.929-7.112-2.929h-252.172c-5.523 0-10 4.477-10 10v213.809h-26.617c-5.523 0-10 4.477-10 10v249.792c0 15.684 12.715 28.399 28.399 28.399h349.032c15.685 0 28.399-12.715 28.399-28.399v-201.563c0-15.685-12.715-28.4-28.399-28.4zm-42.361-193.255h-26.24v-26.24zm-278.453-40.383h232.213v50.383c0 5.523 4.478 10 10 10h50.383v173.255h-208.559l-17.029-25.398c-1.856-2.77-4.972-4.431-8.306-4.431h-58.702zm329.213 463.601c0 4.631-3.768 8.399-8.399 8.399h-349.032c-4.632 0-8.399-3.768-8.399-8.399v-239.792h89.984l17.029 25.398c1.856 2.77 4.972 4.431 8.306 4.431h242.111c4.632 0 8.399 3.768 8.399 8.399v201.564z" fill="#f5f5f5" data-original="#000000" style=""/><path d="m338.021 203.362c5.522 0 10-4.477 10-10v-89.562c0-5.523-4.478-10-10-10h-164.042c-5.522 0-10 4.477-10 10v89.563c0 5.523 4.478 10 10 10h164.042zm-154.042-89.562h144.043v69.563h-144.043z" fill="#f5f5f5" data-original="#000000" style=""/></g></g></svg>
